<svg width="240" height="48" fill="none" xmlns="http://www.w3.org/2000/svg"><rect width="240" height="48" rx="24" fill="#FFEB60"/><rect width="240" height="48" rx="24" fill="url(#paint0_linear)"/><path d="M72.292 23.616c0-1.472-1.856-2.288-4.656-2.288-2.784 0-4.624.816-4.624 2.288s1.84 2.288 4.624 2.288c2.8 0 4.656-.816 4.656-2.288zm-6.224 7.632v-3.232h3.024v3.232h1.872v-3.232h3.088v-1.488h-12.88v1.488h3.024v3.232h1.872zm7.344-10.416V19.36H61.828v1.472h11.584zm-3.088 2.8c0 .576-1.152.896-2.688.896-1.536 0-2.656-.32-2.656-.896 0-.608 1.12-.912 2.656-.912s2.688.304 2.688.912zm-5.28-4.928h5.152v-1.456h-5.152v1.456zm22.04 12.56V17.008h-1.792v5.616h-1.264v-5.36h-1.76v13.344h1.76v-6.496h1.264v7.152h1.792zm-9.84-4.912v-6.176c1.184 0 2.352.016 3.52.016v-1.488h-5.392v9.184h1.36c1.648 0 3.744-.096 4.816-.384l-.176-1.472c-.96.24-2.672.368-4.128.32zm23.047-2.944V21.92h-1.952l.432-2.208-1.824-.272-.368 2.48h-2.848l-.32-2.48-1.792.272.352 2.208H90.02v1.488h4.192v1.232H88.74v1.488h12.88V24.64h-5.536v-1.232h4.208zm-.16 7.472v-1.472h-7.904V26.88h-1.856v4h9.76zm.192-11.856v-1.472H89.971v1.472h10.352zm16.263 3.312v5.008h1.856V17.008h-1.856v3.808h-2.032v1.52h2.032zm2.176 8.544v-1.472h-7.824v-3.024h-1.872v4.496h9.696zm-4.928-5.888V17.84h-1.856v2.24h-2.976v-2.208h-1.888v7.12h6.72zm-1.856-1.488h-2.976v-1.968h2.976v1.968zm21.352 6.08v-1.488h-5.536V26.72c2.256-.208 3.664-1.216 3.664-2.624 0-1.584-1.792-2.64-4.56-2.64s-4.56 1.056-4.56 2.64c0 1.392 1.376 2.384 3.584 2.608v1.392h-5.472v1.488h12.88zm-.784-8.592V19.52h-11.312v1.472h11.312zm-2.992 3.104c0 .832-1.2 1.232-2.656 1.232-1.44 0-2.656-.4-2.656-1.232 0-.8 1.216-1.232 2.656-1.232 1.456 0 2.656.432 2.656 1.232zm-5.2-5.312h5.04v-1.472h-5.04v1.472zm25.687 6.992v-1.504h-8.16v-1.728h7.744V17.92h-9.68v1.488h7.824v1.648h-7.744v4.72h3.824V28h-5.472v1.488h12.88V28h-5.536v-2.224h4.32zm15 3.472v-1.472h-12.88v1.472h12.88zm-1.632-10.784h-9.776v1.472h7.904c.016 2.352-.288 5.392-.608 6.816l1.824.176c.336-1.776.656-4.416.656-8.464zm14.311 8.88V17.008h-1.856v10.336h1.856zm.32 3.536v-1.472h-8V26.32h-1.888v4.56h9.888zm-11.648-9.296c0 2.048 1.52 3.504 3.856 3.504 2.352 0 3.856-1.456 3.856-3.504 0-2.016-1.504-3.52-3.856-3.52-2.336 0-3.856 1.504-3.856 3.52zm1.92 0c0-1.088.736-1.92 1.936-1.92 1.232 0 1.952.832 1.952 1.92 0 1.136-.72 1.968-1.952 1.968-1.2 0-1.936-.832-1.936-1.968z" fill="#333"/><path d="M72.292 23.616c0-1.472-1.856-2.288-4.656-2.288-2.784 0-4.624.816-4.624 2.288s1.84 2.288 4.624 2.288c2.8 0 4.656-.816 4.656-2.288zm-6.224 7.632v-3.232h3.024v3.232h1.872v-3.232h3.088v-1.488h-12.88v1.488h3.024v3.232h1.872zm7.344-10.416V19.36H61.828v1.472h11.584zm-3.088 2.8c0 .576-1.152.896-2.688.896-1.536 0-2.656-.32-2.656-.896 0-.608 1.12-.912 2.656-.912s2.688.304 2.688.912zm-5.28-4.928h5.152v-1.456h-5.152v1.456zm22.04 12.56V17.008h-1.792v5.616h-1.264v-5.36h-1.76v13.344h1.76v-6.496h1.264v7.152h1.792zm-9.84-4.912v-6.176c1.184 0 2.352.016 3.52.016v-1.488h-5.392v9.184h1.36c1.648 0 3.744-.096 4.816-.384l-.176-1.472c-.96.24-2.672.368-4.128.32zm23.047-2.944V21.92h-1.952l.432-2.208-1.824-.272-.368 2.48h-2.848l-.32-2.48-1.792.272.352 2.208H90.02v1.488h4.192v1.232H88.74v1.488h12.88V24.64h-5.536v-1.232h4.208zm-.16 7.472v-1.472h-7.904V26.88h-1.856v4h9.76zm.192-11.856v-1.472H89.971v1.472h10.352zm16.263 3.312v5.008h1.856V17.008h-1.856v3.808h-2.032v1.52h2.032zm2.176 8.544v-1.472h-7.824v-3.024h-1.872v4.496h9.696zm-4.928-5.888V17.84h-1.856v2.24h-2.976v-2.208h-1.888v7.12h6.72zm-1.856-1.488h-2.976v-1.968h2.976v1.968zm21.352 6.08v-1.488h-5.536V26.72c2.256-.208 3.664-1.216 3.664-2.624 0-1.584-1.792-2.64-4.56-2.64s-4.56 1.056-4.56 2.64c0 1.392 1.376 2.384 3.584 2.608v1.392h-5.472v1.488h12.88zm-.784-8.592V19.52h-11.312v1.472h11.312zm-2.992 3.104c0 .832-1.2 1.232-2.656 1.232-1.44 0-2.656-.4-2.656-1.232 0-.8 1.216-1.232 2.656-1.232 1.456 0 2.656.432 2.656 1.232zm-5.2-5.312h5.04v-1.472h-5.04v1.472zm25.687 6.992v-1.504h-8.16v-1.728h7.744V17.92h-9.68v1.488h7.824v1.648h-7.744v4.72h3.824V28h-5.472v1.488h12.88V28h-5.536v-2.224h4.32zm15 3.472v-1.472h-12.88v1.472h12.88zm-1.632-10.784h-9.776v1.472h7.904c.016 2.352-.288 5.392-.608 6.816l1.824.176c.336-1.776.656-4.416.656-8.464zm14.311 8.88V17.008h-1.856v10.336h1.856zm.32 3.536v-1.472h-8V26.32h-1.888v4.56h9.888zm-11.648-9.296c0 2.048 1.52 3.504 3.856 3.504 2.352 0 3.856-1.456 3.856-3.504 0-2.016-1.504-3.52-3.856-3.52-2.336 0-3.856 1.504-3.856 3.52zm1.92 0c0-1.088.736-1.92 1.936-1.92 1.232 0 1.952.832 1.952 1.92 0 1.136-.72 1.968-1.952 1.968-1.2 0-1.936-.832-1.936-1.968z" fill="#fff"/><defs><linearGradient id="paint0_linear" x1="303.704" y1="24" x2="125.892" y2="-181.285" gradientUnits="userSpaceOnUse"><stop stop-color="#FFEB60"/><stop offset="1" stop-color="#A451F7"/></linearGradient></defs></svg>